<svg xmlns="http://www.w3.org/2000/svg" width="164" height="56" viewBox="0 0 164 56" fill="none"><path fill-rule="evenodd" clip-rule="evenodd" d="M29.7096 21.7816C29.7096 22.0943 29.7095 22.4081 29.7095 22.7233V22.7251C29.4803 22.6774 29.2567 22.6306 29.0368 22.5846C28.6153 22.4963 28.2072 22.4109 27.7983 22.3278C27.3162 22.2297 26.8339 22.133 26.3515 22.0363C25.0992 21.7852 23.8469 21.5341 22.599 21.2589C22.1665 21.1627 22.0924 21.3248 22.0958 21.69C22.098 21.9827 22.1003 22.2755 22.1026 22.5684C22.113 23.8901 22.1234 25.2126 22.1234 26.5339C22.1251 28.6681 22.1251 30.8018 22.1251 32.9353C22.1251 35.0689 22.1251 37.2023 22.1268 39.3357C22.1268 39.5994 22.113 39.7918 21.8201 39.9254C20.477 40.5355 19.1387 41.1579 17.8003 41.7804C17.1689 42.074 16.5375 42.3677 15.9056 42.66C15.8576 42.6825 15.8042 42.694 15.739 42.708C15.706 42.7151 15.6699 42.7229 15.6299 42.7331V12.9785C15.9462 13.0585 16.2541 13.137 16.5574 13.2142C16.9696 13.3192 17.3731 13.422 17.7772 13.5236C19.2705 13.8979 20.7639 14.2717 22.2572 14.6456C24.112 15.1099 25.9666 15.5743 27.8207 16.0391C28.3567 16.1727 28.8943 16.3099 29.4251 16.4667C29.5354 16.4987 29.6974 16.6306 29.6974 16.7161C29.7105 18.3927 29.7101 20.0694 29.7096 21.7816Z" fill="url(#paint0_linear_2141_1329)"></path><path d="M8.61697 21.8004V26.3004L1.72461 23.3004L8.61697 21.8004Z" fill="url(#paint1_linear_2141_1329)"></path><path d="M57.5352 30.3254C57.5352 30.7956 57.5284 31.2104 57.5352 31.6234C57.5553 32.6732 57.5956 33.7231 57.599 34.7747C57.604 35.7013 57.2145 36.0849 56.3249 36.0883C55.6534 36.0918 54.9819 36.0658 54.3122 36.097C53.9244 36.1161 53.817 35.9911 53.817 35.5903C53.8304 31.2034 53.8254 26.8166 53.8254 22.4315C53.8254 22.0271 53.8455 21.6228 53.822 21.2202C53.7616 20.1842 54.1913 19.9135 55.0978 19.8996C57.4311 19.8632 59.7661 19.8493 62.0994 19.9066C63.0159 19.9291 63.9476 20.0923 64.839 20.3283C66.7207 20.8263 67.8001 22.3239 67.9461 24.3333C68.0452 25.6921 67.7833 26.9207 66.9994 28.0122C66.3078 28.9753 65.3879 29.5844 64.2246 29.7735C64.1306 29.7892 64.0416 29.836 63.909 29.8829C65.5054 31.9114 67.0883 33.9227 68.7519 36.0363C68.4749 36.0623 68.3322 36.0866 68.1895 36.0866C66.9876 36.0901 65.7857 36.0796 64.5838 36.0935C64.2279 36.097 63.9761 35.9634 63.7579 35.6823C62.4704 34.0181 61.1711 32.3644 59.887 30.6985C59.6788 30.4277 59.4639 30.2924 59.1148 30.315C58.6045 30.3479 58.0891 30.3236 57.5301 30.3236L57.5352 30.3254ZM57.6292 27.2296C58.8865 27.2296 60.0884 27.2539 61.2869 27.2174C61.8056 27.2018 62.3344 27.1098 62.8347 26.9641C63.8737 26.6604 64.4059 25.5845 64.0987 24.5086C63.8486 23.6305 63.1989 23.1655 62.1481 23.1551C60.7363 23.1412 59.3246 23.1499 57.9129 23.1516C57.8205 23.1516 57.7282 23.1759 57.6292 23.1898V27.2278V27.2296Z" fill="#140B28"></path><path d="M139.397 28.2601C139.397 25.9366 139.422 23.613 139.387 21.2912C139.37 20.1823 139.777 19.9116 140.732 19.896C142.716 19.8647 144.702 19.8578 146.684 19.8977C147.792 19.9203 148.897 20.073 149.949 20.4721C151.695 21.1332 152.842 22.3965 153.332 24.2429C154.005 26.7851 154.038 29.3395 153.27 31.8713C152.519 34.3441 150.775 35.6213 148.37 35.9354C147.129 36.0968 145.865 36.0673 144.609 36.0846C143.072 36.1072 141.534 36.0899 139.998 36.0899C139.599 36.0899 139.399 35.8903 139.399 35.4912C139.399 33.0808 139.399 30.6722 139.399 28.2619L139.397 28.2601ZM143.215 23.1618V32.8587C144.484 32.8587 145.729 32.9524 146.958 32.8344C148.334 32.7025 149.3 31.9043 149.64 30.4536C150.008 28.8953 150.013 27.3144 149.704 25.7561C149.387 24.1596 148.491 23.3145 146.919 23.1826C145.701 23.0803 144.467 23.1618 143.215 23.1618Z" fill="#140B28"></path><path d="M132.515 32.9351V29.4923C132.364 29.4853 132.216 29.4732 132.068 29.4732C130.42 29.4732 128.77 29.4732 127.121 29.4732C126.101 29.4732 125.748 29.1053 125.748 28.045C125.748 27.6268 125.748 27.2086 125.748 26.7904C125.748 26.404 125.93 26.2108 126.292 26.2108C128.208 26.2108 130.121 26.2108 132.037 26.2108H132.515V23.1723C132.364 23.1654 132.214 23.1532 132.067 23.1532C130.067 23.1532 128.07 23.1532 126.071 23.1532C125.973 23.1532 125.874 23.1584 125.777 23.1532C124.845 23.0977 124.486 22.7055 124.483 21.7441C124.483 21.2825 124.494 20.821 124.478 20.3594C124.466 20.0279 124.588 19.8891 124.914 19.8891C128.296 19.8943 131.679 19.8769 135.061 19.9047C135.787 19.9099 136.339 20.08 136.332 21.2461C136.305 26.0217 136.315 30.799 136.33 35.5745C136.33 35.9962 136.213 36.1055 135.813 36.1038C132.376 36.0882 128.938 36.0951 125.498 36.0951C124.469 36.0951 124.125 35.7533 124.09 34.6791C124.076 34.2609 124.1 33.841 124.083 33.4245C124.068 33.0497 124.216 32.9334 124.578 32.9369C127.066 32.9508 129.554 32.9438 132.042 32.9438C132.191 32.9438 132.342 32.9438 132.515 32.9438V32.9351Z" fill="url(#paint2_linear_2141_1329)"></path><path d="M70.7341 36.052C71.2948 34.7279 71.8202 33.4924 72.3422 32.2551C73.4854 29.5411 74.6252 26.8254 75.7717 24.1131C76.2233 23.0459 76.7084 21.9943 77.1381 20.9184C77.4302 20.1878 77.9707 19.9119 78.6741 19.8928C79.3439 19.8737 80.0153 19.8928 80.6868 19.8859C80.9587 19.8824 81.1132 19.9934 81.224 20.2572C82.6021 23.5265 83.9887 26.7906 85.3769 30.0548C86.0601 31.6617 86.7534 33.2633 87.435 34.8702C87.7774 35.6789 87.5323 36.0711 86.6661 36.0884C85.8973 36.1023 85.1285 36.0815 84.3597 36.0954C84.0307 36.1006 83.8477 35.9479 83.7268 35.6477C83.4448 34.9431 83.1427 34.2473 82.8606 33.541C82.775 33.3276 82.6642 33.2391 82.4276 33.2391C80.3444 33.246 78.2628 33.2391 76.1796 33.2269C75.9463 33.2269 75.8322 33.305 75.7465 33.5254C75.5434 34.046 75.3218 34.5579 75.0935 35.0663C74.7813 35.7674 74.2408 36.0988 73.4938 36.0919C72.725 36.085 71.9562 36.0919 71.1873 36.0884C71.0665 36.0884 70.9473 36.0711 70.7324 36.0537L70.7341 36.052ZM79.2818 25.1751C78.5348 26.9434 77.8398 28.5902 77.1314 30.2699H81.4556C80.7355 28.5798 80.0372 26.9451 79.2834 25.1751H79.2818Z" fill="#140B28"></path><path d="M100.347 19.8859C101.284 19.8859 102.22 19.8859 103.157 19.8859C103.608 19.8859 103.833 20.1109 103.833 20.5609C103.833 20.9514 103.825 21.3401 103.833 21.7305C103.862 22.9608 103.474 23.124 102.44 23.1413C100.777 23.1708 99.1131 23.1326 97.4496 23.1569C96.5112 23.1708 95.6635 23.4658 95.029 24.2346C94.5187 24.8523 94.3004 25.6072 94.2719 26.3829C94.2299 27.5559 94.2165 28.7412 94.329 29.9055C94.5019 31.7137 95.7122 32.8209 97.4496 32.859C99.4169 32.9024 101.386 32.9232 103.353 32.925C103.75 32.925 103.864 33.0534 103.839 33.4438C103.808 33.9176 103.835 34.3965 103.83 34.872C103.823 35.6668 103.446 36.0798 102.674 36.0832C100.8 36.0937 98.9268 36.1179 97.0551 36.0763C95.7122 36.0451 94.4011 35.8073 93.211 35.0872C91.5827 34.0998 90.8021 32.5311 90.4865 30.7003C90.1458 28.7203 90.181 26.7299 90.6024 24.7534C91.1664 22.1158 92.7913 20.5731 95.3127 20.1601C96.9644 19.8894 98.6599 19.898 100.337 19.78C100.339 19.8147 100.342 19.8494 100.344 19.8841L100.347 19.8859Z" fill="#140B28"></path><path d="M41.3648 23.1496C39.7986 23.1496 38.3029 23.1496 36.8089 23.1496C36.1895 23.1496 36.166 23.1254 36.166 22.4937C36.166 22.1189 36.166 21.744 36.166 21.3675C36.1677 20.3037 36.5723 19.8873 37.6164 19.8873C39.6845 19.8855 41.7542 19.8873 43.8223 19.8873C45.8216 19.8873 47.8209 19.8977 49.8184 19.8786C50.2348 19.8751 50.364 20.0487 50.3506 20.4408C50.3338 20.9302 50.3523 21.423 50.3254 21.9106C50.2734 22.8529 49.988 23.0959 48.9657 23.1392C47.8628 23.1861 46.7583 23.1496 45.6537 23.1496C45.5026 23.1496 45.3532 23.1496 45.1501 23.1496V23.7032C45.1501 27.4272 45.1501 31.1512 45.1501 34.8734C45.1501 35.7393 44.8312 36.076 43.9885 36.0864C43.2751 36.0933 42.5617 36.0655 41.8499 36.0968C41.4554 36.1141 41.3547 35.9718 41.3547 35.5779C41.3665 31.6232 41.3631 27.6684 41.3631 23.7136V23.1496H41.3648Z" fill="#140B28"></path><path d="M122.003 20.1165C121.58 20.5902 121.16 21.0657 120.736 21.5359C119.044 23.4136 117.355 25.2929 115.651 27.1583C115.428 27.403 115.461 27.5505 115.639 27.8021C117.457 30.386 119.26 32.9803 121.063 35.5746C121.139 35.6839 121.16 35.8314 121.207 35.9598C121.081 36.0015 120.956 36.0778 120.83 36.0796C119.712 36.0882 118.594 36.083 117.474 36.0865C117.096 36.0865 116.799 35.9459 116.581 35.6214C114.755 32.9022 112.923 30.1865 111.107 27.4603C111.043 27.3648 111.062 27.1167 111.139 27.0299C112.729 25.2512 114.333 23.4847 115.935 21.7164C116.297 21.3173 116.678 20.9355 117.017 20.5156C117.402 20.0418 117.902 19.8926 118.459 19.8857C119.452 19.8735 120.445 19.877 121.437 19.8857C121.609 19.8857 121.78 19.9447 121.951 19.9776C121.968 20.0228 121.985 20.0679 122.003 20.1113V20.1165Z" fill="#140B28"></path><path d="M107.042 28.3333C107.042 25.9664 107.06 23.5977 107.033 21.2307C107.022 20.2624 107.423 19.9518 108.242 19.898C108.994 19.8477 109.751 19.8911 110.507 19.8859C110.859 19.8841 110.904 20.101 110.904 20.3978C110.899 23.4866 110.901 26.5755 110.901 29.666C110.901 31.2972 110.906 32.9284 110.896 34.5596C110.896 34.8286 110.859 35.1028 110.799 35.3665C110.7 35.8038 110.364 36.0624 109.813 36.0815C108.989 36.1075 108.163 36.0815 107.339 36.0936C107.005 36.0988 107.042 35.8715 107.042 35.6546C107.042 33.9505 107.042 32.2482 107.042 30.5441C107.042 29.8083 107.042 29.0726 107.042 28.3351V28.3333Z" fill="#140B28"></path><path d="M29.7805 23.0001C29.7603 22.004 29.7721 21.0079 29.7721 20.0119L29.7738 20.0136C29.7738 19.0175 29.7536 18.0197 29.7838 17.0254C29.7956 16.6402 29.6546 16.4944 29.3205 16.4111C24.8704 15.304 20.4254 14.1864 15.9753 13.0828C15.6899 13.0134 15.3659 12.9648 15.089 13.0325C12.8211 13.5808 10.56 14.1639 8.29715 14.7296C6.01923 15.2988 3.73962 15.8627 1.45834 16.4163C1.11925 16.4979 0.996713 16.6506 1.00007 17.0289C1.02021 18.9915 1.01854 20.9541 1.00007 22.9168C0.996713 23.269 1.11254 23.4096 1.42141 23.5328C3.63555 24.4196 5.84129 25.3323 8.05542 26.2243C8.31394 26.3284 8.42473 26.4516 8.41298 26.7535C8.3878 27.4164 8.40458 28.081 8.40458 28.7457C8.40458 32.2961 8.40794 35.8466 8.39787 39.397C8.39619 39.6955 8.46501 39.8777 8.75374 39.9801C9.04247 40.0824 9.31441 40.2351 9.59474 40.3653C11.4245 41.2156 13.2508 42.0694 15.0839 42.9093C15.235 42.9787 15.4566 43.0342 15.5925 42.9717C17.7311 41.9913 19.858 40.9831 21.9966 40.0026C22.3055 39.8603 22.386 39.6816 22.386 39.3501C22.376 35.1802 22.3827 31.0085 22.3726 26.8368C22.3709 26.5037 22.4481 26.3336 22.7688 26.2052C24.998 25.3167 27.2172 24.3987 29.4447 23.5016C29.6882 23.4027 29.7855 23.2829 29.7805 23.0001ZM29.7805 23.0001C29.7805 21.0114 29.7838 19.08 29.7687 17.1486C29.7687 17.0653 29.6972 16.5343 29.5898 16.5031C29.0728 16.3504 28.131 16.1439 27.609 16.0137C24.3491 15.1964 21.0874 14.3808 17.8258 13.5635C17.1426 13.3917 16.4611 13.2164 15.7342 13.0325L15.6479 42.8839C15.7638 42.8544 15.846 42.8457 15.9165 42.8128C17.8369 41.9243 20.1144 41.124 22.0398 40.2494C22.3252 40.1192 22.3386 39.4661 22.3386 39.2093C22.3353 35.0532 22.3386 30.8971 22.3353 26.7393C22.3353 25.1671 22.3202 23.5932 22.3084 22.021C22.3051 21.6653 22.344 21.5313 22.7653 21.625C24.449 21.9964 25.8122 22.1984 27.5009 22.5419C28.1069 22.6652 28.7112 22.7936 29.3625 22.9289L29.7805 23.0001ZM1.42141 23.125C1.41805 23.1562 1.36443 23.4688 1.36276 23.5C3.44428 24.352 6.26766 25.512 8.37605 26.3762V21.9398C6.26431 22.3806 3.49622 22.6912 1.42141 23.125Z" stroke="#140B28" stroke-linejoin="round"></path><defs><linearGradient id="paint0_linear_2141_1329" x1="19.1397" y1="27.8005" x2="25.6491" y2="32.3386" gradientUnits="userSpaceOnUse"><stop stop-color="#C0362C"></stop><stop offset="1" stop-color="#4169E1"></stop></linearGradient><linearGradient id="paint1_linear_2141_1329" x1="7.89146" y1="23.6754" x2="7.23418" y2="25.574" gradientUnits="userSpaceOnUse"><stop stop-color="#C0362C"></stop><stop offset="1" stop-color="#4169E1"></stop></linearGradient><linearGradient id="paint2_linear_2141_1329" x1="130.142" y1="19.5504" x2="142.192" y2="26.5614" gradientUnits="userSpaceOnUse"><stop stop-color="#C0362C"></stop><stop offset="1" stop-color="#4169E1"></stop></linearGradient></defs></svg>